<?xml version="1.0" encoding="iso-8859-1"?>
<!-- Generator: Adobe Illustrator 19.0.0, SVG Export Plug-In . SVG Version: 6.00 Build 0)  -->
<svg version="1.1" id="Capa_1" 
	xmlns="http://www.w3.org/2000/svg" 
	xmlns:xlink="http://www.w3.org/1999/xlink" x="0px" y="0px" viewBox="0 0 512 512" style="enable-background:new 0 0 512 512;" xml:space="preserve">
	<g>
		<g transform="translate(1 1)">
			<path style="fill:#e85d8b;" d="M495.64,231.835l-21.675-16.299c-1.536-7.168-3.413-14.251-5.632-21.248
			c-4.613-14.621-10.973-28.632-18.944-41.728C470.381,90.096,434.2,32.155,434.2,32.155c-48.64-17.579-90.453,4.267-114.603,22.613
			c-14.512-5.092-29.37-9.141-44.459-12.117c-13.298-2.617-26.979-2.617-40.277,0c-15.089,2.976-29.946,7.026-44.459,12.117
			C166.253,36.422,124.44,14.576,75.8,32.155c0,0-36.181,57.941-15.189,120.405c-7.971,13.097-14.331,27.107-18.944,41.728
			c-2.219,6.997-4.096,14.165-5.632,21.248L14.36,231.835c-4.284,3.235-6.809,8.286-6.827,13.653v42.667
			c0.017,5.368,2.543,10.419,6.827,13.653l23.04,17.237v0.085c0.597,2.56,1.28,5.12,1.963,7.595
			c23.979,84.907,97.024,154.197,207.104,157.525c2.816,0.085,5.632,0.171,8.533,0.171c2.901,0,5.717-0.085,8.533-0.171
			c113.408-3.499,187.477-76.715,209.067-165.12v-0.085l23.04-17.237c4.284-3.234,6.809-8.286,6.827-13.653v-42.667
			C502.449,240.12,499.924,235.069,495.64,231.835z"/>
			<path style="fill:none;stroke:#000000;stroke-width:2;stroke-linecap:round;stroke-linejoin:round;" d="M273.176,424.176
			c-0.085-0.085-0.085-0.085-0.171-0.085"/>
			<path style="fill:#00838F;" d="M273.176,424.176l-8.96,4.523c9.192,2.139,18.736,2.284,27.989,0.427
			C285.736,428.004,279.372,426.349,273.176,424.176z M473.965,215.536c-1.536-7.168-3.413-14.251-5.632-21.248
			c-4.613-14.621-10.973-28.632-18.944-41.728C470.381,90.096,434.2,32.155,434.2,32.155c-15.703-5.759-32.546-7.719-49.152-5.717
			c-23.919,3.559-46.486,13.327-65.451,28.331c-6.229-2.218-12.117-4.011-17.664-5.632c-10.837-3.157-20.139-5.205-26.795-6.485
			c-6.629-1.333-13.377-1.99-20.139-1.963c-4.281-0.013-8.558,0.272-12.8,0.853c-2.464,0.238-4.914,0.608-7.339,1.109
			c-15.089,2.976-29.946,7.026-44.459,12.117c-2.475-1.877-5.12-3.755-7.936-5.632c-24.038-17.391-53.574-25.457-83.115-22.699
			C91.32,27.5,83.425,29.417,75.8,32.155c0,0-36.181,57.941-15.189,120.405c-7.971,13.097-14.331,27.107-18.944,41.728
			c-2.219,6.997-4.096,14.165-5.632,21.248c-6.925,31.907-6.983,64.922-0.171,96.853l1.536,6.656v0.085
			c0.597,2.56,1.28,5.12,1.963,7.595C63,410.523,134.509,479.131,242.285,484.08c1.365,0.085,2.816,0.171,4.181,0.171
			c2.816,0.085,5.632,0.171,8.533,0.171c2.901,0,5.717-0.085,8.533-0.171c113.408-3.499,187.477-76.715,209.067-165.12v-0.085
			c0.256-0.853,0.512-1.792,0.683-2.645C480.936,283.24,481.169,248.798,473.965,215.536z M242.2,426.907l-4.267,2.133l-4.693,2.304
			c-2.421,1.195-5.259,1.195-7.68,0l-4.693-2.304l-0.768-0.427c-9.274,2.161-18.899,2.335-28.245,0.512
			c-28.245-6.571-31.147-36.523-31.061-49.579c-2.686,0.965-5.421,1.791-8.192,2.475c-5.67,1.372-11.553,1.633-17.323,0.768
			c-2.191-0.262-4.359-0.69-6.485-1.28c-30.038-7.68-61.526-41.728-61.526-101.888c-0.374-19.024,6.142-37.541,18.347-52.139
			c12.268-14.727,29.288-24.716,48.128-28.245h0.171c2.622-0.486,5.273-0.799,7.936-0.939c22.528-1.28,43.776,7.509,64.939,14.08
			c9.728,2.987,19.371,6.229,29.013,9.557c12.479,4.051,25.921,4.051,38.4,0c9.643-3.328,19.285-6.571,29.013-9.557
			c15.381-5.639,31.19-10.033,47.275-13.141h0.171c5.779-0.952,11.645-1.267,17.493-0.939c21.925,1.706,42.219,12.237,56.235,29.184
			c12.205,14.598,18.721,33.115,18.347,52.139c0.012,9.095-0.759,18.174-2.304,27.136c-0.512,2.816-1.109,5.461-1.707,8.107
			c-12.8,51.883-52.992,74.24-81.323,67.157c-0.597-0.171-1.195-0.341-1.707-0.512c-2.259,0.66-4.572,1.116-6.912,1.365
			c-0.597,18.091-7.595,54.784-56.576,46.251c-6.469-1.122-12.834-2.777-19.029-4.949l-8.96,4.523l-0.683,0.341l-4.693,2.304
			c-2.421,1.195-5.259,1.195-7.68,0l-4.693-2.304L242.2,426.907z"/>
			<path style="fill:#00BCD4;" d="M331.8,382.022c-2.901-0.768-5.717-1.536-8.533-2.56v0.085
			c0.085,13.056-2.816,43.008-31.061,49.579c48.981,8.533,55.979-28.16,56.576-46.251
			C343.118,383.673,337.355,383.383,331.8,382.022z M448.365,215.536c-1.536-7.168-3.413-14.251-5.632-21.248
			c-4.613-14.621-10.974-28.632-18.944-41.728C444.781,90.096,408.6,32.155,408.6,32.155c-7.625-2.738-15.52-4.655-23.552-5.717
			c-23.919,3.559-46.486,13.327-65.451,28.331c-6.229-2.218-12.117-4.011-17.664-5.632c-2.816,1.877-5.461,3.755-7.936,5.632
			c-14.512-5.092-29.37-9.141-44.459-12.117c-2.425-0.501-4.874-0.871-7.339-1.109c-4.242-0.581-8.519-0.867-12.8-0.853
			c-6.762-0.028-13.509,0.63-20.139,1.963c-6.656,1.28-15.957,3.328-26.795,6.485c-5.547,1.621-11.435,3.413-17.664,5.632
			c-18.965-15.003-41.532-24.772-65.451-28.331C91.32,27.5,83.425,29.417,75.8,32.155c0,0-36.181,57.941-15.189,120.405
			c-7.971,13.097-14.331,27.107-18.944,41.728c-2.219,6.997-4.096,14.165-5.632,21.248c-6.925,31.907-6.983,64.922-0.171,96.853
			l1.536,6.656v0.085c0.597,2.56,1.28,5.12,1.963,7.595C63,410.523,134.509,479.131,242.285,484.08
			C353.219,478.875,425.667,406.427,447,319.131v-0.085c0.256-0.853,0.512-1.792,0.683-2.645c0.597-2.645,1.195-5.291,1.621-8.021
			C455.305,277.689,454.985,246.098,448.365,215.536z M348.781,382.875c-5.663,0.798-11.427,0.508-16.981-0.853
			c-2.901-0.768-5.717-1.536-8.533-2.56v0.085c0.085,13.056-2.816,43.008-31.061,49.579c-9.253,1.857-18.797,1.712-27.989-0.427
			l-0.683,0.341l-4.693,2.304c-2.421,1.195-5.259,1.195-7.68,0l-4.693-2.304l-4.267-2.133l-4.267,2.133l-4.693,2.304
			c-2.421,1.195-5.259,1.195-7.68,0l-4.693-2.304l-0.768-0.427c-9.274,2.161-18.899,2.335-28.245,0.512
			c-49.067,8.533-55.979-28.33-56.576-46.336c-2.191-0.262-4.359-0.69-6.485-1.28L127,382.022
			c-29.184,7.253-70.827-16.555-82.347-71.595c-2.011-10.145-3.011-20.463-2.987-30.805c-0.374-19.024,6.142-37.541,18.347-52.139
			c14.016-16.947,34.309-27.478,56.235-29.184c5.848-0.328,11.714-0.014,17.493,0.939h0.171c2.622-0.486,5.273-0.799,7.936-0.939
			c22.528-1.28,43.776,7.509,64.939,14.08c9.728,2.987,19.371,6.229,29.013,9.557c2.1,0.688,4.236,1.258,6.4,1.707
			c2.164-0.449,4.3-1.019,6.4-1.707c9.643-3.328,19.285-6.571,29.013-9.557c21.163-6.571,42.411-15.36,64.939-14.08
			c2.663,0.139,5.314,0.453,7.936,0.939h0.171c18.84,3.529,35.86,13.518,48.128,28.245c12.205,14.598,18.721,33.115,18.347,52.139
			c0,60.16-31.403,94.123-61.44,101.888C353.434,382.169,351.121,382.626,348.781,382.875z"/>
			<path style="fill:#46555f;" d="M348.867,379.462v0.085c0.085,18.091-5.461,68.352-75.691,44.629l11.264-5.632
			c2.893-1.464,4.71-4.438,4.693-7.68v-14.763c-0.053-3.525-2.201-6.68-5.461-8.021c-9.136-3.659-18.837-5.709-28.672-6.059
			c-9.835,0.35-19.536,2.4-28.672,6.059c-3.261,1.341-5.409,4.496-5.461,8.021v14.763c-0.017,3.242,1.8,6.216,4.693,7.68
			l11.093,5.547c-70.4,23.893-75.947-26.453-75.861-44.544C191,369.478,215.832,347.888,255,347.888
			C293.997,347.888,318.829,369.307,348.867,379.462z"/>
			<path style="fill:#37474F;" d="M442.733,279.622c0,76.8-51.2,110.933-85.333,102.4c-0.597-0.171-1.195-0.341-1.707-0.512
			c-2.312-0.553-4.592-1.237-6.827-2.048c-30.037-10.155-54.869-31.573-93.867-31.573c-4.282-0.025-8.56,0.26-12.8,0.853
			c-32.085,3.925-54.613,21.845-81.408,30.805c-2.686,0.965-5.421,1.791-8.192,2.475c-7.849,1.871-16.047,1.695-23.808-0.512
			c-30.037-7.68-61.525-41.728-61.525-101.888c-0.374-19.024,6.142-37.541,18.347-52.139c12.268-14.727,29.288-24.716,48.128-28.245
			h0.171c2.622-0.486,5.273-0.799,7.936-0.939c22.528-1.28,43.776,7.509,64.939,14.08c9.728,2.987,19.371,6.229,29.013,9.557
			c12.479,4.051,25.921,4.051,38.4,0c9.643-3.328,19.285-6.571,29.013-9.557c15.381-5.639,31.19-10.033,47.275-13.141h0.171
			c5.779-0.952,11.645-1.267,17.493-0.939c21.925,1.706,42.219,12.237,56.235,29.184
			C436.591,242.08,443.107,260.598,442.733,279.622z"/>
			<path style="fill:#46555f;" d="M417.133,279.622c0,60.16-31.403,94.123-61.44,101.888c-7.79,2.207-16.016,2.384-23.893,0.512
			c-2.901-0.768-5.717-1.536-8.533-2.56c-26.624-8.96-49.152-26.795-81.067-30.72c-4.24-0.593-8.518-0.878-12.8-0.853
			c-39.168,0-64,21.589-94.208,31.659c-2.088,0.794-4.226,1.45-6.4,1.963c-30.037-7.68-61.525-41.728-61.525-101.888
			c-0.374-19.024,6.142-37.541,18.347-52.139c12.268-14.727,29.288-24.716,48.128-28.245h0.171
			c16.085,3.108,31.894,7.503,47.275,13.141c9.728,2.987,19.371,6.229,29.013,9.557c12.479,4.051,25.921,4.051,38.4,0
			c9.643-3.328,19.285-6.571,29.013-9.557c21.163-6.571,42.411-15.36,64.939-14.08c2.663,0.139,5.314,0.453,7.936,0.939h0.171
			c18.84,3.529,35.86,13.518,48.128,28.245C410.991,242.08,417.507,260.598,417.133,279.622z"/>
			<g>
				<path style="fill:#e85d8b;" d="M186.433,97.051c-1.558-1.787-32.858-37.175-74.267-37.175c-4.278,0-8.548,0.382-12.758,1.142
				c-7.85,18.079-19.75,56.129-1.608,92.404"/>
				<path style="fill:#e85d8b;" d="M323.567,97.051c1.558-1.787,32.858-37.175,74.267-37.175c4.278,0,8.548,0.382,12.758,1.142
				c7.85,18.079,19.75,56.129,1.608,92.404"/>
				<path style="fill:#e85d8b;" d="M289.133,396.102v14.763c0.017,3.242-1.8,6.216-4.693,7.68l-11.264,5.632l-9.643,4.864h-0.171
				l-4.523,2.304c-2.421,1.195-5.259,1.195-7.68,0l-4.608-2.304h-0.085l-9.813-4.949l-11.093-5.547
				c-2.893-1.464-4.71-4.438-4.693-7.68v-14.763c0.053-3.525,2.201-6.68,5.461-8.021c9.136-3.659,18.837-5.709,28.672-6.059
				c9.835,0.35,19.536,2.4,28.672,6.059C286.933,389.422,289.081,392.576,289.133,396.102z"/>
			</g>
			<path style="fill:#46555f;" d="M263.533,429.04v55.211c-2.816,0.085-5.632,0.171-8.533,0.171c-2.901,0-5.717-0.085-8.533-0.171
			V429.04h0.085l4.608,2.304c2.421,1.195,5.259,1.195,7.68,0l4.523-2.304H263.533z"/>
			<g>
				<path style="fill:#e85d8b;" d="M398.445,287.728c-1.963,14.592-14.08,33.024-25.003,46.251
				c-16.896-2.987-38.144-9.045-49.152-18.944c-15.275-12.885-21.248-29.184-15.019-40.704c4.066-6.723,10.949-11.253,18.732-12.329
				c7.783-1.076,15.637,1.416,21.375,6.783c0.864-7.804,5.206-14.802,11.815-19.042c6.609-4.24,14.779-5.27,22.233-2.803
				C395.715,251.632,401.688,267.931,398.445,287.728z"/>
				<path style="fill:#e85d8b;" d="M185.709,315.035c-11.008,9.899-32.256,15.957-49.152,18.944
				c-10.923-13.227-23.04-31.659-25.003-46.251c-3.243-19.797,2.731-36.096,15.019-40.789c7.455-2.467,15.625-1.437,22.233,2.803
				c6.609,4.24,10.95,11.237,11.815,19.042c5.738-5.367,13.592-7.859,21.375-6.783c7.783,1.076,14.665,5.606,18.732,12.329
				C206.957,285.851,200.984,302.15,185.709,315.035z"/>
			</g>
		</g>
		<g>
			<path d="M186.133,254.867c-6.648-1.26-13.519-0.535-19.758,2.083c-3.037-6.05-7.795-11.067-13.675-14.421
			c-8.548-5.006-18.881-5.945-28.192-2.562c-16.117,6.212-24.308,26.358-20.433,49.879c2.5,18.517,17.933,39.633,26.9,50.571
			c1.622,1.976,4.044,3.121,6.6,3.121c0.503,0.001,1.005-0.043,1.5-0.133c13.933-2.492,39.375-8.529,53.117-20.813
			c18.408-15.525,25.259-36.162,17.05-51.354C204.357,262.615,195.888,256.615,186.133,254.867z M181.008,309.705
			c-11.907,8.351-25.597,13.811-39.983,15.946c-9.6-11.03-16.476-24.16-20.075-38.333c-2.525-15.329,1.467-28.25,9.692-31.425
			c1.59-0.596,3.277-0.894,4.975-0.879c3.022,0.021,5.988,0.823,8.608,2.329c4.998,2.944,8.331,8.056,9.008,13.816
			c0.499,3.028,2.586,5.554,5.465,6.616c2.879,1.062,6.106,0.496,8.452-1.483c4.25-3.942,10.101-5.665,15.808-4.654
			c4.703,0.801,8.82,3.621,11.267,7.717C198.425,287.117,193.067,299.534,181.008,309.705L181.008,309.705z"/>
			<path d="M374.425,343.538c2.556,0,4.978-1.145,6.6-3.121c8.967-10.938,24.4-32.054,26.858-50.325
			c3.917-23.767-4.275-43.913-20.392-50.125c-9.311-3.375-19.641-2.436-28.192,2.562c-5.88,3.354-10.638,8.371-13.675,14.421
			c-6.238-2.621-13.111-3.346-19.759-2.083c-9.755,1.748-18.224,7.748-23.108,16.371c-8.208,15.192-1.358,35.829,16.867,51.191
			c13.925,12.446,39.367,18.483,53.3,20.975C373.42,343.494,373.922,343.539,374.425,343.538z M330.808,309.542
			c-11.875-10.008-17.233-22.425-13.033-30.188c2.447-4.096,6.563-6.916,11.267-7.717c1.068-0.205,2.154-0.308,3.242-0.308
			c4.652,0.078,9.117,1.841,12.567,4.962c2.346,1.978,5.573,2.545,8.452,1.483c2.879-1.062,4.966-3.588,5.465-6.616
			c0.678-5.761,4.011-10.873,9.008-13.816c4.1-2.439,9.061-2.969,13.583-1.45c8.225,3.175,12.217,16.096,9.65,31.671
			c-3.623,14.082-10.482,27.124-20.033,38.088C356.509,323.502,342.751,317.984,330.808,309.542z"/>
			<path d="M10.258,309.638l20.699,15.5c0.423,1.631,0.734,3.281,1.192,4.905c22.358,79.242,92.9,163.912,223.85,163.912
			c110.975,0,198.535-66.089,224.992-168.785l20.75-15.528c6.442-4.847,10.24-12.434,10.258-20.496V246.48
			c-0.021-8.046-3.804-15.618-10.225-20.467l-19.257-14.473c-1.455-6.323-3.081-12.616-5.052-18.832
			c-4.461-14.031-10.459-27.526-17.885-40.239c19.401-63.826-15.479-121.177-17.148-123.836c-1.012-1.62-2.537-2.854-4.333-3.504
			c-50.286-18.164-93.099,2.157-119.125,21.083c-13.459-4.513-27.192-8.161-41.116-10.921c-14.407-2.822-29.224-2.828-43.633-0.017
			c-13.953,2.764-27.715,6.417-41.202,10.938C166.994,27.286,124.181,6.964,73.9,25.129c-1.796,0.65-3.322,1.884-4.333,3.504
			c-1.668,2.66-36.549,60.01-17.148,123.836c-7.427,12.714-13.425,26.21-17.885,40.243c-1.975,6.239-3.63,12.533-5.088,18.855
			l-19.22,14.446C3.804,230.862,0.021,238.434,0,246.48v42.667C0.018,297.208,3.815,304.794,10.258,309.638z M325.075,360.355
			c-20.083-9.833-40.85-20-69.075-20c-28.225,0-48.992,10.167-69.075,20c-11.258,6.028-23.121,10.851-35.392,14.387
			c-14.607,2.628-29.619-1.482-40.85-11.183C89.15,346.746,76.8,316.517,76.8,280.622c-0.423-16.99,5.353-33.553,16.25-46.596
			c12.561-15.144,30.691-24.592,50.3-26.213c17.313,0.183,34.44,3.585,50.508,10.033c3.808,1.246,7.6,2.487,11.4,3.658
			c9.658,2.975,19.242,6.221,28.817,9.488c14.218,4.825,29.632,4.825,43.85,0c9.575-3.267,19.158-6.512,28.825-9.488
			c3.792-1.171,7.583-2.412,11.392-3.658c16.068-6.448,33.196-9.85,50.508-10.033c19.609,1.621,37.739,11.069,50.3,26.213
			c10.897,13.042,16.673,29.606,16.249,46.596c0,35.896-12.35,66.125-33.883,82.938c-11.236,9.692-26.244,13.8-40.85,11.183
			C348.196,371.206,336.333,366.383,325.075,360.355z M194.433,375.68c19.175-9.388,37.3-18.258,61.567-18.258
			c24.267,0,42.392,8.871,61.567,18.258c7.595,3.717,15.393,7.436,23.552,10.616c0.094,11.821-4.94,23.101-13.802,30.925
			c-9.616,5.723-21.12,7.369-31.954,4.57c2.122-2.871,3.278-6.342,3.304-9.912v-14.792c0.001-7.007-4.272-13.306-10.783-15.896
			c-10.155-4.078-20.946-6.347-31.883-6.704c-10.94,0.357-21.734,2.626-31.892,6.704c-6.507,2.593-10.776,8.891-10.775,15.896
			v14.792c0.025,3.549,1.167,7.001,3.265,9.864c-10.924,2.871-22.543,1.242-32.257-4.523c-8.834-7.789-13.864-19.02-13.792-30.797
			C178.83,383.219,186.736,379.447,194.433,375.68z M230.4,411.88l0.1-14.863c8.132-3.241,16.753-5.088,25.5-5.463
			c8.785,0.382,17.441,2.253,25.6,5.533v14.792l-10.829,5.415c-0.344,0.144-0.678,0.311-1,0.5L256,424.68L230.4,411.88z
			 M491.525,239.655c2.14,1.618,3.401,4.142,3.408,6.825v42.667c-0.008,2.689-1.276,5.218-3.425,6.833l-5.363,4.015
			c3.081-21.159,3.316-42.636,0.698-63.858L491.525,239.655z M60.594,173.415l0.039,0.09c2.117,4.2,7.232,5.896,11.438,3.792
			c4.206-2.103,5.919-7.213,3.829-11.426c-28-55.996-0.133-113.183,6.708-125.696c68.8-22.6,121.967,38.525,124.225,41.175
			c3.051,3.592,8.437,4.031,12.029,0.979c3.592-3.051,4.031-8.437,0.979-12.029c-3.46-3.935-7.141-7.669-11.028-11.183
			c11.646-3.456,21.643-5.72,28.761-7.109c12.196-2.386,24.739-2.38,36.933,0.017c7.057,1.377,17.037,3.638,28.677,7.092
			c-3.886,3.514-7.567,7.248-11.026,11.183c-1.973,2.325-2.555,5.526-1.527,8.397c1.027,2.871,3.508,4.975,6.508,5.521
			c3,0.546,6.063-0.551,8.036-2.876c0.55-0.65,55.133-63.833,124.217-41.162c6.842,12.513,34.708,69.7,6.708,125.692
			c-2.09,4.213-0.378,9.323,3.829,11.426c4.206,2.103,9.321,0.407,11.438-3.792l0.039-0.09c3.843,7.907,7.116,16.078,9.794,24.452
			c12.097,38.068,13.743,78.687,4.767,117.608c-22.068,95.357-100.687,157.72-201.433,161.089v-37.068l10.409-5.204
			c10.319,3.469,21.1,5.368,31.983,5.633c10.808,0.364,21.448-2.738,30.367-8.854c12.082-9.701,19.517-24.043,20.483-39.507
			c3.672,0.818,7.421,1.238,11.183,1.253c15.641-0.396,30.712-5.952,42.867-15.804c25.7-20.071,40.441-55.204,40.441-96.392
			c0.445-21.091-6.807-41.622-20.4-57.754c-15.592-18.64-38.038-30.21-62.267-32.096c-19.437,0.011-38.697,3.695-56.767,10.858
			c-3.708,1.213-7.417,2.425-11.108,3.567c-9.825,3.025-19.575,6.321-29.317,9.646c-10.641,3.608-22.175,3.608-32.817,0
			c-9.742-3.325-19.492-6.621-29.308-9.646c-3.7-1.142-7.408-2.354-11.117-3.567c-18.07-7.161-37.33-10.845-56.767-10.858
			c-24.228,1.886-46.674,13.456-62.266,32.096c-13.593,16.133-20.845,36.663-20.4,57.754c0,41.188,14.742,76.321,40.442,96.392
			c14.927,12.451,34.537,17.782,53.713,14.604c0.976,15.446,8.409,29.767,20.479,39.455c8.918,6.116,19.559,9.218,30.367,8.854
			c10.957-0.269,21.811-2.19,32.195-5.698l10.538,5.269v37.045c-115.863-3.636-178.732-79.67-198.892-151.133
			c-11.757-41.815-10.984-86.162,2.225-127.542C53.478,189.494,56.751,181.322,60.594,173.415z M17.067,246.48
			c0.008-2.682,1.268-5.207,3.408-6.825l4.722-3.549c-2.658,21.225-2.439,42.712,0.649,63.879l-5.354-4.009
			c-2.15-1.613-3.418-4.142-3.425-6.829V246.48z"/>
			<path d="M98.808,162.955c2.956-0.002,5.701-1.534,7.254-4.05c1.553-2.516,1.693-5.656,0.371-8.3
			c-15.133-30.267-7.35-62.154,0-80.837c2.237-0.238,4.484-0.357,6.733-0.358c37.542,0,66.617,32.85,67.833,34.25
			c3.1,3.544,8.484,3.909,12.033,0.815c3.549-3.094,3.922-8.477,0.834-12.031c-3.583-4.105-36.242-40.1-80.7-40.1
			c-4.784,0.002-9.558,0.428-14.267,1.275c-2.81,0.504-5.181,2.381-6.317,5c-8.892,20.479-20.9,60.654-1.417,99.621
			C92.613,161.133,95.573,162.96,98.808,162.955z"/>
			<path d="M331,103.659c1.217-1.4,30.292-34.25,67.833-34.25c2.249,0.001,4.497,0.121,6.733,0.358
			c7.35,18.683,15.133,50.571,0,80.837c-2.09,4.213-0.378,9.323,3.829,11.426c4.206,2.103,9.321,0.407,11.438-3.792
			c19.483-38.967,7.475-79.142-1.417-99.621c-1.135-2.619-3.507-4.496-6.317-5c-4.708-0.847-9.483-1.273-14.267-1.275
			c-44.459,0-77.117,35.996-80.7,40.1c-3.088,3.554-2.715,8.937,0.834,12.031C322.517,107.568,327.901,107.203,331,103.659
			L331,103.659z"/>
		</g>
	</g>
</svg>
